<svg xmlns="http://www.w3.org/2000/svg" xmlns:xlink="http://www.w3.org/1999/xlink" version="1.1" x="0px" y="0px" viewBox="0 0 100 125" enable-background="new 0 0 100 100" xml:space="preserve"><g><path fill="none" d="M54.921,12.218c-0.119-0.381-0.274-0.744-0.476-1.08c-0.166-0.278-0.367-0.534-0.584-0.775   c-0.901-1.006-2.195-1.651-3.65-1.651h0c-1.456,0-2.75,0.645-3.652,1.651c-0.215,0.24-0.416,0.496-0.583,0.775   c-0.201,0.336-0.357,0.697-0.475,1.08h0.001H54.921z"/><path d="M29.732,80.873c-0.364-0.539-0.576-1.188-0.576-1.887c0-1.863,1.511-3.373,3.374-3.373c-1.864,0-3.375,1.51-3.375,3.373   C29.155,79.686,29.368,80.335,29.732,80.873z"/><path d="M35.902,66.675c0,1.862-1.51,3.372-3.372,3.372C34.393,70.047,35.903,68.539,35.902,66.675   c0.001-1.864-1.509-3.372-3.372-3.372C34.392,63.303,35.902,64.813,35.902,66.675z"/><path d="M65.448,15.832c0-1.041-0.296-2.01-0.804-2.838C65.15,13.822,65.448,14.791,65.448,15.832z"/><path d="M34.975,15.832c0,0.908,0.226,1.762,0.62,2.517C35.202,17.594,34.975,16.737,34.975,15.832z"/><rect x="76.407" y="18.35" width="0.002" height="71.294"/><path d="M32.53,70.047c-1.862,0-3.372-1.51-3.372-3.372s1.509-3.372,3.372-3.372c-1.864,0-3.375,1.508-3.375,3.371   C29.155,68.539,30.666,70.047,32.53,70.047z"/><path d="M29.156,42.228c0-1.863,1.511-3.374,3.374-3.374C30.666,38.854,29.155,40.364,29.156,42.228   c-0.001,1.411,0.868,2.618,2.099,3.12C30.024,44.846,29.156,43.64,29.156,42.228z"/><path d="M29.156,54.54c0-1.397,0.85-2.597,2.061-3.108C30.005,51.943,29.155,53.143,29.156,54.54   c-0.001,1.164,0.589,2.191,1.487,2.798C29.746,56.731,29.156,55.704,29.156,54.54z"/><path d="M35.778,12.994c-0.506,0.828-0.803,1.797-0.803,2.838C34.975,14.791,35.273,13.822,35.778,12.994z"/><path d="M40.443,19.445h19.534c1.994,0,3.614-1.621,3.614-3.613v0c0,1.992-1.62,3.612-3.614,3.612L40.443,19.445   c-1.991-0.001-3.611-1.622-3.612-3.613v0C36.831,17.824,38.451,19.445,40.443,19.445z"/><path d="M64.83,18.35L64.83,18.35c0.069-0.131,0.125-0.27,0.183-0.407C64.955,18.081,64.898,18.219,64.83,18.35z"/><path d="M32.53,26.719c1.166,0,2.193,0.591,2.799,1.49c-0.606-0.9-1.633-1.492-2.799-1.492c-1.864,0-3.375,1.511-3.375,3.375   c0,0.699,0.213,1.349,0.577,1.887c-0.364-0.539-0.576-1.188-0.576-1.886C29.156,28.229,30.667,26.719,32.53,26.719z"/><path d="M75.221,12.994H64.645c0.508,0.828,0.804,1.797,0.804,2.838c0,0.75-0.159,1.46-0.436,2.111   c-0.058,0.137-0.113,0.275-0.182,0.407h11.576h0.002v71.294h-0.002H23.592V18.35v-0.001h12.003c-0.394-0.755-0.62-1.609-0.62-2.517   c0-1.041,0.297-2.01,0.803-2.838H24.78c-2.859,0-5.187,2.327-5.187,5.187v71.633c0,2.857,2.327,5.187,5.187,5.187h50.441   c2.859,0,5.188-2.326,5.188-5.187V18.18C80.406,15.319,78.08,12.994,75.221,12.994z"/><rect x="39.626" y="26.719" width="30.62" height="2.547"/><rect x="39.626" y="30.931" width="15.312" height="2.548"/><rect x="39.626" y="38.854" width="30.62" height="2.547"/><rect x="39.626" y="43.242" width="15.312" height="2.547"/><rect x="39.626" y="51.166" width="30.62" height="2.547"/><rect x="39.626" y="55.379" width="15.312" height="2.545"/><rect x="39.626" y="63.303" width="30.62" height="2.545"/><rect x="39.626" y="67.514" width="15.312" height="2.547"/><rect x="39.626" y="75.613" width="30.62" height="2.545"/><rect x="39.626" y="79.816" width="15.312" height="2.547"/><path d="M35.329,28.209c-0.606-0.899-1.633-1.49-2.799-1.49c-1.863,0-3.374,1.511-3.374,3.374c0,0.699,0.212,1.348,0.576,1.886   c0.606,0.897,1.633,1.488,2.798,1.488c1.864,0,3.374-1.51,3.374-3.374C35.904,29.395,35.692,28.747,35.329,28.209z"/><path d="M32.53,38.854c-1.863,0-3.374,1.511-3.374,3.374c0,1.412,0.869,2.618,2.099,3.12c0.176,0.072,0.359,0.129,0.548,0.171   c0.234,0.052,0.477,0.083,0.727,0.083c1.864,0,3.374-1.511,3.374-3.374S34.394,38.854,32.53,38.854z"/><path d="M32.53,51.166c-0.466,0-0.91,0.095-1.313,0.266c-1.211,0.512-2.061,1.711-2.061,3.108c0,1.164,0.59,2.191,1.487,2.798   c0.062,0.041,0.132,0.069,0.197,0.106c0.124,0.072,0.244,0.148,0.376,0.204c0.404,0.171,0.848,0.266,1.313,0.266   c1.864,0,3.374-1.511,3.374-3.374S34.394,51.166,32.53,51.166z"/><circle cx="32.53" cy="66.675" r="3.372"/><path d="M29.156,78.986c0,0.699,0.212,1.348,0.576,1.887c0.606,0.898,1.633,1.488,2.798,1.488c1.864,0,3.374-1.511,3.374-3.375   c0-1.863-1.51-3.373-3.374-3.373C30.667,75.613,29.156,77.123,29.156,78.986z"/><path d="M40.443,19.444h19.534c1.994,0,3.614-1.621,3.614-3.612v0c0-1.993-1.62-3.614-3.614-3.614h-1.231   c-0.063-0.368-0.144-0.729-0.249-1.08c-0.079-0.265-0.178-0.521-0.282-0.774c0,0,0,0,0-0.001C56.913,7.22,53.818,5,50.212,5   c-3.608,0-6.701,2.22-8.001,5.362c0,0,0,0,0,0.001c-0.105,0.253-0.202,0.511-0.282,0.774c-0.107,0.35-0.185,0.713-0.247,1.08   h-1.238c-1.992,0-3.612,1.621-3.612,3.614v0C36.832,17.823,38.452,19.444,40.443,19.444z M45.976,11.138   c0.167-0.279,0.368-0.535,0.583-0.775c0.902-1.006,2.196-1.651,3.652-1.651h0c1.455,0,2.749,0.645,3.65,1.651   c0.217,0.241,0.418,0.497,0.584,0.775c0.201,0.336,0.356,0.699,0.476,1.08h-9.419h-0.001   C45.619,11.835,45.775,11.474,45.976,11.138z"/></g><text x="0" y="115" fill="#000000" font-size="5px" font-weight="bold" font-family="'Helvetica Neue', Helvetica, Arial-Unicode, Arial, Sans-serif">Created by TukTuk Design</text><text x="0" y="120" fill="#000000" font-size="5px" font-weight="bold" font-family="'Helvetica Neue', Helvetica, Arial-Unicode, Arial, Sans-serif">from the Noun Project</text></svg>